<?xml version="1.0" standalone="no"?>
<!DOCTYPE svg PUBLIC "-//W3C//DTD SVG 20010904//EN"
 "http://www.w3.org/TR/2001/REC-SVG-20010904/DTD/svg10.dtd">
<svg version="1.0" xmlns="http://www.w3.org/2000/svg"
 width="4130.000000pt" height="6624.000000pt" viewBox="0 0 4130.000000 6624.000000"
 preserveAspectRatio="xMidYMid meet">
<metadata>
Created by potrace 1.14, written by Peter Selinger 2001-2017
</metadata>
<g transform="translate(0.000000,6624.000000) scale(0.100000,-0.100000)"
fill="#000000" stroke="none">
<path d="M14705 66224 c-70 -22 -179 -97 -221 -152 -19 -25 -45 -77 -57 -116
-20 -65 -22 -90 -21 -301 1 -434 48 -775 144 -1050 77 -220 265 -522 424 -680
178 -178 360 -278 787 -433 444 -161 877 -251 1439 -297 376 -30 547 -46 755
-70 257 -30 644 -64 1160 -105 663 -52 1020 -92 1420 -160 456 -77 1064 -140
1630 -170 251 -13 451 -13 666 1 169 12 229 9 229 -10 0 -29 -329 -203 -1785
-944 -912 -463 -1406 -725 -1710 -907 -311 -185 -512 -277 -730 -335 -316 -84
-403 -129 -690 -360 -276 -222 -416 -321 -585 -415 -135 -75 -316 -195 -530
-351 -102 -75 -331 -241 -510 -369 -392 -281 -444 -320 -585 -442 -139 -120
-264 -250 -485 -503 -96 -110 -278 -306 -405 -435 -240 -246 -326 -349 -491
-589 -158 -229 -294 -392 -499 -596 -105 -104 -238 -250 -297 -323 -122 -153
-120 -150 -614 -872 -253 -371 -949 -1647 -1174 -2155 -96 -217 -246 -527
-354 -730 -144 -271 -336 -652 -408 -810 -65 -140 -282 -659 -408 -975 -190
-475 -438 -1325 -500 -1712 -76 -474 -120 -725 -186 -1059 -94 -481 -151 -812
-164 -959 -15 -171 -66 -367 -132 -508 -23 -48 -37 -66 -66 -81 -58 -29 -215
-66 -512 -121 -151 -28 -399 -75 -550 -105 -342 -67 -621 -118 -1040 -190
-1574 -271 -4227 -932 -5668 -1414 -372 -125 -604 -196 -1012 -310 -338 -95
-490 -146 -625 -210 -187 -90 -275 -175 -318 -306 -21 -68 -22 -81 -21 -470 1
-457 8 -524 68 -635 93 -171 117 -231 150 -360 44 -170 53 -196 120 -328 112
-218 296 -461 503 -663 140 -137 254 -224 366 -279 109 -53 174 -68 347 -81
334 -24 714 26 1010 134 284 104 498 224 925 522 430 299 938 571 1319 704
146 51 254 81 416 116 210 46 484 123 730 205 330 111 477 153 1040 300 272
71 612 160 755 199 522 140 1016 258 1474 352 295 60 392 69 476 44 90 -26
206 -82 243 -118 67 -64 92 -137 223 -657 216 -854 305 -1142 564 -1820 120
-314 200 -534 321 -887 142 -413 246 -656 451 -1053 412 -797 937 -1622 1411
-2218 41 -52 198 -259 350 -460 421 -561 554 -721 857 -1031 533 -544 1059
-959 2145 -1691 486 -327 732 -502 932 -663 407 -326 794 -550 1239 -715 180
-67 313 -103 570 -156 356 -73 568 -129 1006 -266 439 -138 675 -197 916 -230
209 -29 402 -65 677 -125 749 -164 1080 -201 1580 -176 603 30 1295 100 1735
176 304 52 395 59 665 49 129 -5 316 -9 415 -8 173 0 186 2 325 37 233 58 443
85 860 107 712 38 838 53 1109 135 46 14 96 25 112 25 29 0 29 0 29 -62 0 -82
-22 -261 -75 -613 -110 -720 -157 -1172 -200 -1920 -30 -513 -67 -976 -100
-1230 -37 -286 -91 -807 -120 -1150 -22 -273 -67 -712 -130 -1278 -31 -271
-69 -622 -85 -782 -39 -371 -80 -700 -135 -1090 -73 -509 -113 -910 -155
-1550 -35 -526 -58 -763 -120 -1230 -71 -538 -92 -718 -170 -1490 -61 -599
-94 -882 -129 -1125 -43 -297 -68 -743 -86 -1545 -23 -1049 -50 -1773 -75
-2040 -33 -353 -90 -1612 -124 -2760 -9 -269 -18 -557 -21 -640 -3 -82 -10
-492 -15 -910 -6 -418 -15 -845 -20 -950 -16 -291 -33 -314 -113 -155 -105
208 -201 385 -323 600 -226 400 -244 431 -379 690 -130 249 -211 416 -373 770
-105 230 -347 737 -562 1180 -306 629 -438 921 -511 1125 -18 50 -55 142 -84
205 -54 119 -82 200 -134 383 -52 182 -181 408 -343 602 -216 259 -298 298
-972 460 l-299 73 -191 -90 c-322 -152 -542 -281 -821 -483 -77 -56 -222 -156
-321 -223 -228 -153 -321 -245 -389 -385 -123 -255 -91 -511 95 -759 67 -88
237 -249 380 -358 205 -156 243 -205 810 -1035 186 -272 320 -456 502 -687
206 -261 356 -464 611 -823 322 -454 352 -494 497 -675 72 -91 174 -228 225
-305 84 -126 386 -653 521 -910 89 -168 207 -439 294 -670 107 -287 190 -491
307 -755 112 -252 121 -273 263 -620 103 -252 129 -312 284 -649 37 -79 98
-223 137 -319 95 -236 257 -614 369 -863 423 -939 525 -1309 740 -2714 123
-804 189 -1127 290 -1420 67 -195 157 -347 234 -394 48 -30 250 -44 540 -38
392 8 411 19 570 327 374 727 1062 2704 1352 3886 100 409 361 1296 534 1814
132 396 226 628 425 1040 149 310 230 498 280 650 91 281 235 565 513 1010
165 265 280 461 479 820 206 371 311 549 371 628 139 182 260 385 404 674 117
236 227 420 500 833 242 367 383 591 463 735 106 192 263 408 429 590 396 434
623 796 713 1138 21 78 26 121 26 222 1 203 -29 286 -186 508 -57 81 -131 188
-165 238 -119 175 -317 341 -523 438 -195 92 -361 134 -564 143 -293 12 -499
-61 -674 -237 -145 -147 -285 -377 -636 -1050 -181 -345 -344 -636 -432 -769
-76 -115 -127 -203 -380 -656 -298 -531 -393 -714 -530 -1015 -204 -446 -422
-980 -785 -1920 -256 -663 -332 -840 -364 -840 -18 0 -18 26 2 220 11 109 18
341 24 785 8 628 11 694 65 1440 70 956 87 1192 109 1555 52 821 72 1286 88
2031 13 626 4 1258 -28 1839 -19 355 -14 858 10 1045 66 503 120 1244 201
2720 101 1870 117 2229 165 3795 27 887 56 1343 114 1825 31 256 66 621 106
1105 53 636 86 951 145 1365 19 132 43 323 54 425 11 102 30 273 41 380 12
107 54 479 95 825 98 833 134 1173 144 1387 11 211 22 246 105 307 106 80 379
201 1086 482 479 191 793 340 1030 490 260 165 599 368 910 546 596 342 959
584 1309 872 191 156 490 394 776 616 347 270 527 420 696 581 153 146 278
253 454 387 208 159 433 354 730 632 311 292 421 393 555 509 220 192 307 295
540 644 87 130 189 275 225 322 100 129 151 210 181 286 94 243 158 373 369
739 419 728 853 1599 949 1903 49 156 95 420 116 657 15 184 37 346 70 525 61
336 70 494 77 1371 7 885 3 953 -67 1205 -36 129 -58 263 -70 434 -10 150 -41
328 -101 590 -80 352 -193 738 -244 840 -32 63 -141 185 -425 475 -135 138
-333 347 -441 465 -381 418 -549 552 -914 730 -289 141 -838 344 -1013 375
-276 47 -716 71 -1057 56 -605 -27 -1040 -110 -1461 -279 -171 -69 -305 -113
-391 -128 -102 -17 -212 -52 -373 -116 -192 -76 -351 -163 -500 -274 -74 -56
-202 -147 -285 -204 -350 -240 -545 -427 -807 -773 -67 -89 -186 -243 -264
-343 -157 -199 -282 -379 -424 -609 -103 -167 -244 -377 -348 -517 -147 -197
-304 -476 -548 -973 -195 -396 -289 -607 -439 -985 -137 -345 -221 -546 -310
-745 -87 -193 -175 -418 -285 -725 -170 -476 -254 -752 -373 -1220 -47 -184
-113 -432 -147 -550 -163 -572 -294 -1191 -370 -1740 -12 -85 -41 -245 -65
-355 -24 -110 -74 -357 -110 -550 -75 -396 -112 -572 -160 -760 -34 -128 -65
-284 -125 -623 -17 -95 -57 -308 -90 -475 -75 -388 -119 -646 -175 -1037 -47
-329 -69 -440 -105 -510 -19 -37 -32 -47 -113 -85 -292 -136 -921 -333 -1627
-510 -593 -148 -890 -229 -1141 -310 -75 -24 -176 -51 -225 -60 -136 -24 -530
-38 -889 -30 -413 8 -596 19 -879 55 -127 16 -388 45 -581 65 -1445 147 -1754
208 -2125 422 -135 78 -232 126 -458 229 -294 134 -447 226 -717 435 -71 55
-195 143 -275 196 -80 53 -226 158 -326 233 -186 142 -380 274 -613 420 -322
201 -514 373 -1032 926 -898 960 -1644 1867 -1991 2424 -442 707 -792 1594
-962 2440 -68 340 -287 1498 -321 1695 -64 380 -69 442 -68 855 1 206 4 402 8
436 l6 61 167 81 c92 44 211 97 264 116 96 36 133 46 518 150 113 30 349 98
525 151 371 112 806 224 985 254 69 12 256 42 415 66 160 25 394 63 520 85
476 83 968 148 1475 195 340 31 551 58 745 95 276 52 440 72 780 95 402 27
682 59 995 116 157 29 309 62 750 163 274 62 695 147 1030 206 322 57 439 86
532 129 35 17 151 91 258 165 226 156 537 352 835 526 116 68 266 156 335 197
290 172 521 359 568 461 20 45 25 71 25 146 1 203 -75 312 -262 374 -132 44
-324 35 -916 -43 -403 -54 -661 -86 -950 -120 -263 -31 -596 -80 -950 -140
-490 -83 -775 -117 -1355 -160 -414 -32 -860 -76 -1170 -116 -499 -64 -623
-78 -860 -98 -599 -50 -1173 -74 -2220 -91 -1042 -17 -1352 -34 -1615 -90 -77
-16 -268 -54 -425 -85 -157 -31 -395 -79 -530 -107 -306 -64 -323 -67 -390
-67 -83 -1 -118 21 -157 99 -73 145 -81 377 -23 655 17 83 53 281 80 440 27
160 71 405 99 545 61 314 135 718 196 1075 175 1031 333 1585 712 2495 315
755 417 971 509 1085 113 140 220 322 476 815 345 660 522 943 760 1211 149
166 250 252 643 546 154 115 352 265 440 334 267 209 570 426 950 679 357 238
577 405 744 564 192 183 252 220 871 536 621 317 1011 543 1676 973 821 529
1014 639 1484 840 223 95 348 142 356 134 13 -12 -28 -103 -216 -477 -262
-523 -417 -867 -607 -1350 -140 -355 -239 -639 -491 -1405 -425 -1292 -434
-1321 -541 -1755 -126 -512 -391 -1343 -555 -1742 -31 -76 -65 -175 -76 -221
-49 -207 -75 -512 -75 -877 1 -278 1 -287 28 -385 56 -207 215 -474 382 -640
148 -148 313 -254 694 -444 536 -269 971 -450 1186 -496 85 -18 197 -19 245
-1 107 38 347 257 407 371 18 34 57 147 87 252 72 247 199 760 220 888 40 234
72 390 147 715 129 560 205 964 249 1320 78 641 106 777 303 1465 142 496 232
830 297 1107 80 336 116 466 200 718 74 221 154 490 249 835 131 475 265 801
605 1470 357 702 683 1237 1053 1730 311 413 512 641 1003 1141 403 408 571
592 702 765 86 114 191 221 323 333 123 102 529 493 889 855 l348 350 -4 183
c-6 195 -22 275 -82 411 -81 184 -282 373 -454 428 -148 47 -587 21 -1280 -76
-730 -103 -1434 -154 -2392 -175 -267 -5 -703 -15 -970 -20 -544 -11 -711 -21
-885 -52 -211 -37 -544 -36 -1485 2 -501 21 -1278 43 -2215 65 -975 23 -1105
33 -1542 120 -318 64 -614 108 -873 130 -269 23 -447 50 -695 105 -779 173
-1708 322 -2685 430 -752 83 -1074 103 -1165 74z m23386 -19469 c468 -17 740
-118 917 -341 73 -93 177 -273 208 -363 12 -36 28 -104 33 -151 14 -110 14
-936 1 -1071 -29 -287 -95 -491 -445 -1385 -400 -1019 -501 -1227 -1017 -2088
-462 -770 -612 -994 -865 -1293 -108 -128 -151 -174 -458 -498 -246 -260 -623
-667 -850 -920 -612 -679 -1360 -1387 -1868 -1766 -126 -95 -162 -117 -419
-258 -93 -51 -241 -135 -330 -188 -444 -262 -731 -414 -1008 -531 -284 -120
-393 -152 -447 -131 -25 9 -26 11 -19 77 3 37 15 110 26 162 42 195 285 1124
360 1375 329 1092 1088 3252 1561 4438 76 191 186 471 245 623 160 416 339
810 720 1575 345 694 461 906 635 1164 294 437 653 827 1007 1094 152 115 293
195 505 285 414 177 747 219 1508 191z"/>
</g>
</svg>
